P1
# random bitmap generated by: random-bitmap 105 104 50
105 104
0
1
1
0
1
1
0
0
1
0
1
0
1
1
1
1
0
1
1
0
0
0
0
1
0
1
0
0
1
0
0
0
1
0
0
1
0
0
1
1
0
0
1
0
1
1
1
0
0
0
0
0
0
0
0
0
1
0
0
1
1
0
0
1
1
0
0
0
1
0
1
1
1
1
0
0
1
0
0
0
1
1
0
1
0
0
1
1
1
1
0
0
0
1
1
0
0
1
1
0
0
0
0
0
0
1
0
1
1
1
0
1
0
0
1
1
0
0
1
0
0
1
0
0
0
1
1
0
0
1
0
1
0
1
1
1
1
1
1
1
1
0
0
1
0
1
1
0
0
0
1
0
1
0
0
1
0
1
1
1
1
1
0
0
0
1
1
1
1
0
0
0
1
0
0
0
0
1
1
1
1
1
0
1
0
1
1
1
1
1
1
0
0
0
1
1
1
0
0
0
1
1
1
1
0
1
0
1
1
0
0
0
0
0
1
1
1
0
1
0
0
1
0
0
1
1
1
1
1
0
0
1
0
1
1
0
1
1
0
1
1
0
0
1
0
1
0
1
0
1
0
1
0
1
1
1
1
0
1
0
1
1
0
1
0
1
0
0
0
1
0
1
0
1
1
0
0
0
1
1
0
1
0
1
1
0
1
0
1
1
1
1
1
1
1
0
0
1
1
0
0
1
0
1
1
0
1
1
1
1
1
1
1
0
0
0
0
0
1
1
1
1
0
1
1
1
0
0
1
0
1
1
0
1
0
1
1
1
0
0
0
0
1
0
0
1
1
1
0
1
0
1
0
1
0
1
0
0
0
1
1
1
0
1
1
0
1
0
1
1
0
0
1
1
0
1
0
1
0
0
0
0
0
1
1
1
0
1
1
1
0
0
1
1
0
1
1
0
0
0
0
1
0
0
1
1
0
1
0
1
0
1
0
0
1
1
0
0
0
0
0
0
0
1
0
0
1
1
1
0
1
1
1
1
1
0
1
0
1
1
1
1
0
0
1
1
1
1
0
1
1
1
0
1
0
0
0
1
0
0
0
1
0
0
1
1
0
0
0
0
1
1
0
0
0
1
1
0
0
0
1
0
0
1
0
1
1
0
1
0
1
0
1
1
1
0
0
0
0
0
1
1
1
0
0
0
0
0
0
0
0
1
0
1
1
1
0
1
1
1
0
0
0
0
0
1
0
1
0
1
1
1
1
0
0
0
0
1
1
1
0
0
1
1
1
1
0
0
1
1
1
0
1
1
1
0
1
0
1
1
1
0
1
1
1
1
0
1
0
0
1
1
0
1
1
0
1
0
0
0
1
1
0
0
1
1
1
0
0
1
0
0
1
0
1
1
0
0
0
0
0
1
1
1
0
0
0
1
1
1
0
1
1
0
0
1
0
1
1
0
0
1
1
1
1
1
1
0
0
0
0
1
0
0
0
0
0
0
0
0
1
0
1
0
0
1
1
0
1
0
0
0
1
1
1
1
0
0
0
0
1
0
0
1
1
0
0
1
0
1
1
0
0
1
1
0
0
1
0
0
0
1
1
1
1
0
0
0
0
0
1
1
1
1
0
0
0
1
1
0
1
1
1
1
1
0
0
1
1
1
0
1
0
0
1
1
1
0
1
0
1
0
0
0
0
1
0
1
1
0
0
1
1
1
0
0
0
0
0
0
1
1
1
1
1
1
1
0
1
0
0
0
0
0
0
0
1
0
1
0
1
0
1
0
1
0
1
1
1
0
0
0
1
0
0
1
0
1
1
1
0
0
1
0
0
0
1
1
1
1
1
1
0
0
0
1
1
1
1
0
0
1
0
1
1
0
1
1
0
1
1
0
0
0
1
1
0
0
0
1
1
1
0
0
1
0
0
0
0
1
0
0
1
0
0
1
0
0
0
0
1
0
1
1
0
0
1
1
1
1
0
1
1
1
1
0
1
0
0
1
0
0
0
1
1
0
1
1
1
1
1
1
1
1
1
1
0
0
0
1
1
1
1
1
0
0
1
0
1
0
1
0
1
0
1
0
0
1
1
0
1
1
1
1
1
0
1
1
1
0
1
1
1
1
1
0
1
1
1
1
0
0
0
0
1
0
1
1
1
1
0
1
1
1
0
0
1
0
0
0
0
1
1
1
1
1
1
1
1
1
0
0
1
1
0
0
0
1
0
1
1
0
0
0
1
0
0
1
0
1
0
0
1
1
0
0
1
1
1
1
1
0
1
1
0
0
1
1
1
0
1
1
0
0
1
1
1
1
1
1
1
1
1
1
1
0
0
1
0
1
1
1
0
1
1
0
0
1
0
1
0
1
0
0
0
1
0
1
1
0
1
1
0
1
1
1
1
1
1
1
0
0
0
1
0
0
0
0
1
0
1
1
1
0
0
1
1
0
1
0
0
1
1
0
1
0
0
0
1
1
0
0
1
1
0
1
1
0
1
1
0
1
1
1
1
1
0
0
1
0
0
1
1
1
1
1
1
0
0
1
0
1
0
1
1
0
0
1
0
1
0
0
0
0
0
1
1
0
0
1
1
0
1
1
0
0
0
0
1
0
0
1
1
1
1
1
0
0
0
1
1
1
1
0
0
0
1
1
0
1
1
0
0
0
1
0
1
1
0
1
0
0
0
1
0
1
0
1
0
0
1
1
0
0
1
0
0
0
1
0
1
0
1
1
0
0
1
0
0
1
0
1
0
1
0
1
1
0
1
1
0
1
0
1
0
1
0
0
1
1
1
0
0
0
1
0
1
0
0
0
1
1
0
1
1
0
1
1
0
1
1
1
1
0
0
0
0
1
0
1
0
0
1
0
0
1
1
0
0
0
1
0
1
1
0
0
0
0
0
1
1
0
1
1
1
0
1
1
1
1
1
1
1
0
1
0
1
0
0
1
1
0
1
0
0
1
0
1
1
1
0
0
0
1
1
0
0
0
0
1
0
0
0
0
1
1
1
0
0
0
1
0
0
0
0
1
0
1
1
0
0
1
0
1
0
0
0
1
1
1
0
1
1
1
1
0
0
0
1
1
1
0
1
0
0
1
0
0
1
1
0
0
1
1
0
1
1
1
0
0
1
1
0
0
0
0
0
1
1
1
0
0
1
1
0
1
1
1
1
0
0
0
1
0
0
0
0
0
1
0
0
0
1
0
0
1
0
1
1
0
1
1
0
1
1
1
0
1
1
0
1
0
1
0
1
0
0
1
0
0
1
0
1
1
1
0
0
0
0
1
0
0
1
1
1
1
0
1
1
1
0
1
0
0
0
0
0
1
1
0
1
1
1
0
1
1
1
0
0
0
0
0
1
1
1
1
0
0
1
1
0
0
0
0
0
0
0
0
0
0
0
0
0
0
1
1
1
0
1
1
0
1
0
0
1
0
1
0
1
1
0
0
1
1
0
1
1
1
0
0
0
1
0
1
0
0
1
0
1
1
0
1
0
0
1
0
1
1
1
1
0
1
0
1
1
1
1
1
0
0
0
1
1
1
0
0
1
1
0
0
0
1
1
1
0
1
1
1
1
1
0
1
1
0
1
1
1
0
0
1
0
0
1
0
1
1
0
0
0
0
0
1
1
0
0
0
1
0
0
0
0
0
1
1
1
0
0
1
1
1
1
1
0
0
0
1
0
1
0
1
0
1
1
0
1
0
1
0
1
0
0
1
1
0
1
0
0
1
1
0
1
1
1
0
1
0
1
1
1
1
0
1
1
1
1
0
0
0
1
0
1
1
0
1
0
1
0
0
1
0
1
1
0
0
1
1
0
0
0
0
0
0
1
1
0
1
1
1
1
0
1
1
0
1
1
0
1
1
1
0
1
0
1
0
0
0
0
1
0
1
0
1
0
1
1
1
1
1
0
1
0
1
0
1
0
0
0
1
1
1
1
0
0
0
0
1
0
0
1
0
0
0
0
1
0
1
0
1
0
0
1
0
0
1
1
0
0
1
0
0
0
1
1
0
1
1
0
1
0
1
1
0
1
0
0
1
0
0
1
1
1
0
1
0
1
0
1
0
0
0
0
0
0
0
1
1
1
1
0
0
1
1
1
1
1
0
0
1
1
0
1
0
1
0
0
0
0
0
0
0
1
0
0
1
0
0
0
0
1
0
1
0
1
0
0
1
1
0
0
1
0
1
0
0
0
0
1
0
1
0
1
1
1
0
0
1
0
1
0
0
0
1
0
0
0
0
1
1
1
0
0
0
0
1
0
0
0
1
0
0
1
1
0
0
0
1
1
1
1
0
0
1
0
1
0
0
1
0
1
1
0
1
1
1
1
1
1
0
1
1
0
1
0
0
1
1
0
1
1
1
0
1
1
0
0
0
0
0
1
1
1
1
1
0
1
1
1
1
1
1
0
1
0
1
0
1
0
1
1
0
1
1
0
0
0
1
1
0
0
1
1
1
1
0
0
1
0
0
0
0
1
0
0
0
1
0
0
0
1
0
1
0
0
1
1
1
1
0
0
0
1
1
0
0
1
1
1
1
1
0
0
0
1
1
0
1
0
0
0
1
1
1
1
1
1
1
1
0
0
0
0
0
0
1
0
0
1
0
1
0
0
1
1
0
0
1
1
0
0
0
0
0
0
1
0
1
1
1
1
0
1
1
1
0
0
1
1
1
0
0
1
1
1
1
0
1
1
1
1
1
1
1
0
0
0
1
1
0
1
1
1
0
1
0
1
1
1
1
0
1
1
1
0
0
1
1
0
1
0
1
0
0
0
1
0
0
0
0
1
1
1
0
0
1
1
1
1
0
1
1
1
1
0
0
1
1
0
1
1
1
0
0
0
1
0
1
1
0
1
0
1
1
1
0
1
0
0
1
0
0
0
0
1
0
0
0
0
0
1
0
1
1
1
0
0
1
1
1
0
0
0
1
1
1
1
0
1
0
0
1
0
0
1
1
0
0
0
1
1
1
1
0
1
1
1
1
0
1
1
1
0
1
0
1
1
0
1
0
0
1
1
1
0
1
0
0
1
0
0
1
1
0
1
0
0
0
1
1
0
0
1
0
0
1
1
0
0
1
0
1
1
1
0
0
1
0
1
1
0
0
0
0
0
0
1
0
0
0
0
0
0
1
1
0
1
0
1
0
1
1
0
1
0
0
1
0
1
0
0
1
0
0
1
0
0
0
1
0
0
0
0
0
1
1
0
1
1
1
0
0
1
1
1
1
0
0
0
0
0
1
1
0
0
0
0
0
1
0
1
1
1
1
1
0
1
1
0
1
1
0
1
1
0
1
1
1
1
0
1
1
0
0
1
1
0
1
1
0
0
0
1
1
1
1
0
0
1
1
0
0
0
0
1
0
0
0
1
0
0
0
0
0
1
1
1
0
1
1
1
1
1
0
1
0
1
1
1
0
1
0
1
0
1
0
0
0
1
0
1
0
1
1
1
1
0
1
1
0
0
0
0
1
1
1
1
0
1
1
0
1
1
1
0
1
1
1
1
1
0
1
1
0
0
1
1
1
0
0
1
1
0
0
1
1
1
1
1
1
0
1
1
0
1
0
0
1
0
0
0
1
1
1
1
0
0
0
0
0
1
1
1
1
0
1
1
1
0
1
0
1
0
0
1
0
0
1
1
1
0
0
1
1
1
0
0
0
1
0
0
1
1
0
1
0
0
0
0
0
1
1
0
0
1
1
1
0
1
0
1
1
0
0
1
1
1
0
1
0
0
1
0
0
1
0
1
0
0
1
1
0
0
0
0
0
0
0
1
1
1
1
1
0
0
1
1
1
1
1
1
0
1
1
1
1
0
1
1
0
0
0
1
0
0
1
0
0
1
0
1
1
1
1
0
0
1
0
1
1
0
1
1
1
0
1
1
0
0
0
1
1
1
0
1
1
1
0
1
0
1
0
1
1
1
0
1
1
0
1
1
1
0
0
1
1
0
0
1
0
0
0
1
0
0
1
1
1
1
0
1
0
0
1
1
1
1
1
1
0
1
0
1
1
0
0
1
0
0
1
1
0
1
1
0
0
0
1
0
0
0
0
1
1
0
0
1
0
1
0
0
0
1
0
0
0
1
1
0
1
1
1
0
1
1
0
1
1
0
1
0
0
0
1
0
0
0
0
1
1
1
0
0
0
1
0
0
1
1
1
0
0
0
1
0
1
1
1
0
1
1
1
0
1
1
0
0
1
1
1
0
0
0
1
1
0
0
0
1
0
0
1
1
0
1
0
0
0
1
1
1
0
0
0
0
1
1
0
1
1
0
1
0
1
0
1
0
1
1
1
1
1
0
1
0
1
1
0
0
0
0
1
1
1
1
0
1
1
0
1
1
0
0
0
0
1
1
1
1
1
0
0
1
0
1
1
0
0
1
1
1
0
0
1
1
1
0
0
1
0
1
1
0
0
1
0
0
1
1
0
1
0
0
1
1
0
1
1
0
1
0
0
1
1
0
0
0
0
1
1
0
0
0
0
0
0
1
1
1
1
1
1
0
1
0
0
1
0
0
1
1
1
0
0
0
1
0
0
0
1
1
1
0
0
1
1
0
1
1
1
1
1
0
1
1
1
0
1
0
0
0
1
1
1
0
1
1
1
1
0
0
0
0
0
1
1
1
1
0
0
0
0
1
0
1
0
1
1
0
0
0
0
1
1
1
1
0
1
0
0
1
1
0
1
1
0
1
1
0
1
1
1
1
1
1
0
0
1
1
0
0
0
1
0
1
1
0
0
0
0
0
1
0
1
0
0
0
0
1
1
0
0
1
1
0
1
1
1
1
0
0
1
1
1
0
1
0
0
1
0
0
1
1
0
1
1
0
1
1
1
0
1
0
1
1
1
0
0
1
1
0
0
0
0
0
0
1
1
0
1
1
0
0
0
1
1
1
0
0
1
0
0
1
0
1
1
0
1
0
1
1
0
0
0
0
1
1
0
0
1
1
0
1
1
0
1
0
0
0
1
1
0
0
0
1
0
0
1
1
0
0
1
1
1
1
1
1
0
1
1
1
1
0
0
1
0
1
0
0
0
0
0
1
1
0
1
1
0
0
0
0
1
0
1
1
1
1
0
0
0
0
1
1
1
1
1
0
0
1
0
0
1
0
0
0
1
0
0
1
1
1
1
0
1
0
0
0
1
0
0
1
1
1
1
0
0
1
0
0
0
1
1
1
0
0
1
1
0
0
0
1
1
0
0
1
0
1
0
0
0
0
1
0
0
1
1
1
1
0
0
0
0
0
1
1
1
0
1
0
0
1
0
1
0
0
0
0
0
0
0
1
1
1
1
0
1
1
1
0
1
1
0
0
1
0
1
0
1
0
0
0
0
0
0
1
0
0
1
0
0
0
0
1
1
0
1
0
1
0
0
0
1
0
0
1
1
1
0
1
0
1
1
0
0
0
0
1
1
0
0
1
1
1
1
1
0
0
0
1
0
0
1
1
0
1
0
0
1
0
0
1
1
0
1
0
1
1
0
0
1
0
0
1
1
1
1
0
1
1
1
0
0
0
0
1
0
1
0
0
1
1
1
1
0
1
0
0
0
1
0
1
0
0
1
1
0
0
1
0
0
0
0
1
1
0
1
1
0
0
1
0
0
1
1
0
1
0
1
1
1
0
0
0
1
0
1
1
0
1
1
0
0
1
0
0
1
0
0
0
0
1
0
0
0
0
1
0
0
1
1
0
0
1
1
1
0
1
0
0
0
0
1
0
0
0
1
0
1
0
0
1
1
0
1
1
1
0
1
0
1
0
1
0
0
0
1
0
0
1
1
1
0
0
0
1
0
1
0
1
0
0
0
0
1
0
1
1
0
0
1
0
0
0
1
0
0
0
0
0
0
0
1
0
0
0
0
1
1
1
0
0
1
1
0
1
0
1
0
1
0
1
0
0
0
1
1
1
1
1
0
0
1
1
0
1
0
1
1
1
0
1
0
1
1
0
0
0
1
0
0
0
1
1
1
0
0
1
0
0
0
0
0
0
0
1
1
0
0
0
0
0
1
0
1
1
0
1
0
0
1
1
1
1
0
1
1
1
1
1
1
0
0
0
1
0
1
0
1
0
1
1
1
0
0
0
0
0
0
1
0
0
1
1
0
0
1
1
1
1
0
0
1
1
0
1
0
1
1
1
1
0
1
0
1
1
1
1
1
1
0
0
1
1
0
1
0
1
0
0
1
0
0
1
1
1
0
1
1
0
1
0
1
1
0
1
1
0
0
1
1
0
1
0
1
1
0
1
1
1
0
1
0
0
1
0
1
0
1
1
0
1
1
0
0
0
1
1
0
0
1
1
0
1
1
1
0
1
0
0
0
0
0
1
1
1
0
1
1
1
0
0
0
0
0
1
1
0
1
1
0
0
1
0
1
0
1
1
0
1
0
0
0
0
0
0
0
0
1
0
0
0
1
1
0
1
0
0
1
1
0
0
0
0
1
0
0
1
0
1
1
0
1
0
0
1
0
1
0
1
1
1
1
1
1
0
1
1
1
1
1
1
1
0
1
0
0
0
1
1
1
0
1
0
1
1
1
1
1
1
0
0
1
0
0
0
0
1
1
1
0
1
1
1
0
0
1
0
1
0
0
0
1
1
0
0
0
1
1
1
1
1
0
1
1
0
1
0
0
0
1
0
0
0
0
0
0
0
0
1
1
0
1
1
1
1
1
0
1
0
1
1
1
1
0
0
0
1
1
0
1
0
1
1
1
1
0
0
1
0
0
0
1
0
0
1
0
1
1
1
1
1
1
1
1
0
1
0
1
0
0
0
0
0
1
0
1
0
1
1
0
0
0
0
1
0
0
1
0
0
0
0
1
0
1
0
0
1
1
0
1
1
1
1
0
0
0
0
1
0
1
1
0
0
0
0
0
0
0
0
1
1
1
1
0
1
1
1
1
1
1
1
1
0
0
1
0
1
1
0
0
0
0
0
0
0
1
0
0
1
0
1
0
0
1
0
0
1
1
0
0
0
0
1
0
0
0
1
0
0
1
0
1
1
1
1
0
1
0
0
1
1
0
1
0
1
0
0
0
0
1
1
1
1
1
1
0
1
1
1
1
1
1
1
0
0
1
1
0
0
0
1
1
0
1
0
1
1
1
1
1
0
1
1
0
1
0
1
0
0
0
1
0
0
0
0
0
1
0
1
1
0
1
1
1
1
1
1
1
1
1
1
1
0
1
1
1
0
1
0
0
1
1
0
1
1
0
1
0
0
1
0
0
1
1
1
0
1
1
0
1
0
0
1
0
1
1
0
0
0
0
1
0
0
1
1
0
1
1
0
1
1
0
0
0
1
1
0
1
1
1
1
1
1
0
0
0
0
1
1
0
1
1
0
1
1
1
0
0
1
1
1
0
0
1
0
1
1
1
0
0
1
1
1
0
1
1
1
1
1
0
0
0
1
1
1
1
1
0
1
1
0
0
0
0
0
0
1
1
1
1
1
0
0
1
0
1
0
0
1
0
1
1
0
1
1
0
1
1
0
1
1
0
1
1
0
0
1
0
0
0
0
1
1
0
0
1
1
1
1
1
1
0
0
0
1
1
1
1
0
0
0
1
1
1
1
1
0
0
1
1
1
1
1
0
0
1
1
0
0
0
0
1
0
1
1
1
0
1
1
0
1
0
0
0
1
1
1
1
1
1
1
1
0
1
0
0
0
1
1
0
0
1
0
0
0
0
1
1
1
1
0
1
1
1
1
0
1
1
0
1
0
0
1
0
0
1
0
0
0
1
1
1
0
0
0
1
0
1
1
1
1
0
0
1
1
1
0
0
1
0
0
0
1
1
1
1
0
1
0
1
0
1
1
0
0
0
1
0
1
0
1
1
0
1
1
1
0
1
1
0
0
1
1
0
1
1
0
1
0
1
0
0
0
0
1
0
1
1
1
1
1
1
1
0
1
0
0
1
1
1
0
1
0
0
1
1
0
1
1
1
1
0
1
1
0
0
0
0
0
1
0
0
1
0
1
0
1
0
0
1
1
0
1
0
0
0
0
0
0
1
0
1
0
0
1
0
1
0
1
0
0
1
1
0
0
1
1
0
1
1
1
0
0
1
1
0
1
1
1
0
0
0
1
1
1
0
0
0
0
0
0
0
1
0
1
0
0
0
0
0
0
0
1
0
1
1
1
0
0
1
1
0
0
0
1
1
1
0
0
0
1
1
1
0
1
0
1
1
0
1
0
0
0
1
0
0
0
0
0
1
1
0
0
1
1
0
1
0
1
0
1
0
0
0
1
1
1
1
1
0
1
0
1
1
0
1
1
0
0
1
0
0
0
0
0
1
1
1
0
0
1
1
0
0
1
1
1
1
0
0
0
0
0
1
0
0
1
0
0
1
0
0
0
1
1
1
0
1
0
0
1
0
0
0
0
1
1
1
1
0
0
0
1
1
0
0
0
0
1
1
0
1
0
1
1
1
0
1
1
1
0
0
1
1
0
0
0
1
1
0
1
0
1
1
0
1
0
0
1
1
0
0
1
1
1
0
0
0
1
0
0
0
1
1
1
0
0
1
1
1
0
0
1
1
0
0
0
1
0
1
1
1
1
1
1
0
1
0
0
0
0
1
1
0
0
0
0
0
0
0
0
0
0
1
0
0
1
1
1
1
1
1
0
1
1
1
0
0
1
1
0
0
0
1
1
0
1
1
0
1
1
0
1
1
0
1
0
1
0
1
0
0
0
1
1
0
1
0
0
0
1
0
0
1
1
1
1
1
0
0
1
0
1
1
1
1
1
0
0
1
0
0
1
1
1
1
1
0
1
1
1
1
0
1
0
0
1
0
1
1
1
0
0
1
0
1
0
0
1
0
1
1
0
0
0
1
0
1
0
1
1
0
1
0
1
1
1
0
0
1
1
1
0
1
1
0
1
0
0
0
0
0
0
0
1
0
0
1
0
0
1
0
1
1
0
0
0
1
0
0
1
1
0
0
0
0
0
1
1
1
1
1
1
1
1
1
0
0
0
1
1
1
1
0
1
1
1
1
1
0
0
1
1
0
1
0
0
0
1
1
1
1
1
1
1
1
0
0
1
0
1
0
0
1
0
1
1
1
1
0
0
0
0
0
0
1
0
1
0
0
1
1
0
1
1
0
1
0
1
1
0
1
0
1
0
1
0
0
1
0
0
0
0
1
0
1
1
0
1
1
0
1
1
0
1
1
0
0
0
0
0
0
1
1
0
0
0
1
1
0
1
0
1
1
1
1
0
1
1
1
1
1
1
1
1
0
1
1
1
1
0
0
1
1
0
0
0
1
1
1
0
1
1
1
1
1
1
1
0
0
0
0
1
0
1
0
0
1
1
0
0
0
1
0
0
1
0
1
0
1
1
1
0
1
1
0
1
1
1
1
0
0
1
1
0
1
1
0
1
1
0
0
0
1
1
0
0
1
1
0
0
0
0
1
0
0
1
0
0
0
0
0
0
0
0
1
1
1
0
0
1
0
0
1
1
1
0
1
1
1
1
1
1
1
0
0
0
0
1
1
1
1
1
1
1
0
1
0
1
1
0
1
1
1
1
1
0
1
1
0
1
1
1
0
0
0
0
1
1
1
1
0
0
0
1
1
1
0
1
1
0
1
0
0
1
0
1
1
1
0
1
0
0
0
0
0
0
1
0
0
0
0
1
0
1
1
1
0
0
0
0
1
0
0
0
1
0
1
1
0
0
1
0
0
0
0
0
0
0
0
0
0
0
1
1
1
1
1
0
0
0
1
1
1
1
0
0
1
0
1
0
0
0
0
0
1
1
0
1
0
1
0
0
0
0
0
0
1
0
0
0
1
1
0
0
0
0
1
0
0
1
0
1
0
1
1
1
1
0
0
0
0
0
0
0
0
1
1
0
1
1
1
0
1
1
1
0
0
0
1
0
1
0
1
0
1
0
1
0
1
0
0
1
1
1
1
0
0
0
0
0
0
1
1
1
0
0
0
0
1
0
1
0
0
1
0
1
1
1
0
1
1
1
0
0
0
0
0
1
1
1
0
1
0
0
0
1
1
0
0
0
1
1
1
1
1
1
0
1
1
1
0
0
1
0
0
1
0
0
1
0
0
0
0
1
0
0
0
0
0
0
1
1
1
0
0
1
1
0
0
1
1
0
1
0
1
1
1
0
0
0
1
0
0
1
0
0
0
0
1
0
0
0
0
1
0
0
1
0
0
0
0
1
0
1
1
0
1
0
1
0
0
0
0
0
1
1
1
0
1
0
0
1
1
0
0
0
1
0
1
1
0
0
0
1
0
0
0
0
0
1
1
1
0
1
0
0
1
0
0
0
0
0
0
0
1
0
0
1
0
0
1
1
1
0
1
0
1
0
0
1
1
0
1
0
0
0
1
1
1
0
1
1
0
0
1
0
1
0
1
0
0
0
0
0
1
0
1
1
0
0
1
1
0
1
0
1
1
0
0
1
1
1
0
0
0
0
1
1
1
1
1
1
0
0
0
1
1
1
0
1
0
1
0
1
1
1
1
1
1
0
0
1
0
0
0
0
0
0
0
1
0
1
1
0
0
1
0
0
1
0
1
1
1
1
0
0
1
1
0
1
0
1
1
1
1
0
1
0
0
0
0
1
0
1
0
0
1
1
1
0
1
0
1
1
0
1
0
1
1
0
0
0
0
1
0
1
0
1
1
1
0
1
1
0
0
1
1
1
1
0
1
0
0
0
0
1
0
0
1
0
1
0
1
0
0
1
0
1
0
1
0
0
1
0
1
1
0
0
1
1
0
0
1
1
0
0
0
1
0
0
1
0
0
0
0
1
1
0
1
0
1
0
0
0
1
0
1
0
0
1
0
1
0
0
0
1
1
0
1
0
1
0
1
0
1
0
1
1
0
1
1
0
1
1
0
0
0
1
1
1
1
1
0
1
1
1
0
1
1
1
1
0
1
0
1
0
1
0
1
0
0
1
1
1
1
0
0
0
0
1
0
0
1
1
0
1
0
1
1
0
0
0
0
0
0
0
1
1
0
0
1
0
1
1
1
0
0
1
1
0
0
1
0
1
0
0
0
0
0
1
0
1
0
0
0
1
0
0
0
0
0
0
1
1
1
0
0
0
1
0
1
1
0
1
0
0
0
0
1
1
0
0
0
1
0
1
0
0
0
0
1
0
1
0
0
0
0
0
1
1
1
1
0
1
0
0
0
1
0
0
0
0
0
0
1
1
1
0
0
1
1
1
0
1
1
0
1
0
1
1
0
0
0
1
0
0
1
1
0
1
0
1
0
0
1
1
1
0
1
1
1
0
0
0
1
0
0
0
1
0
1
1
0
0
0
1
0
1
0
0
0
1
1
1
1
0
1
1
1
0
0
0
1
0
0
1
0
0
0
1
0
0
1
0
1
1
0
1
0
0
1
1
1
0
0
1
1
0
0
1
1
0
0
1
1
1
1
0
0
1
1
0
1
1
0
1
0
1
0
0
1
1
1
0
0
1
0
1
0
0
0
0
0
0
0
0
1
1
1
0
0
0
0
0
1
1
0
0
1
1
1
0
0
0
1
0
1
1
1
0
0
1
0
1
0
0
1
0
1
0
0
1
0
0
1
0
0
0
1
1
0
0
0
0
1
0
0
1
1
1
1
0
1
1
0
1
1
1
0
1
1
1
0
0
0
0
0
1
1
0
1
0
1
0
1
1
0
1
1
1
1
0
1
0
1
0
1
0
0
0
1
0
1
1
0
1
0
1
0
1
1
0
1
0
1
1
1
0
1
1
0
1
1
0
0
0
0
0
0
1
0
0
1
0
1
0
1
1
0
0
1
1
0
1
1
1
1
1
1
0
1
0
1
1
1
1
0
0
0
0
1
0
0
1
0
1
1
1
0
1
0
1
0
1
1
1
1
0
1
1
0
1
1
0
0
0
0
1
0
1
1
1
1
1
1
1
1
0
1
1
0
1
0
1
1
0
0
1
0
0
0
0
1
0
1
0
0
0
0
0
1
0
0
1
1
0
1
0
1
1
1
0
0
0
0
0
0
0
1
1
1
0
0
1
1
0
1
1
1
1
0
0
0
1
0
1
1
1
0
0
0
1
1
0
1
1
0
1
1
1
1
0
0
0
0
0
0
1
0
1
1
1
0
0
1
0
0
0
0
1
1
1
1
0
1
1
1
0
1
1
1
1
1
0
0
0
0
1
1
1
0
1
0
0
1
0
1
0
0
0
0
0
0
0
1
1
1
1
0
0
0
1
0
1
0
1
0
0
0
1
0
0
1
0
1
1
0
1
1
1
0
0
0
0
1
1
1
0
1
1
1
1
0
0
0
0
1
1
0
1
0
0
1
1
0
1
1
1
1
1
1
0
0
1
1
0
0
0
0
0
0
0
1
0
0
0
0
0
0
1
0
0
1
0
0
0
0
0
1
1
0
1
0
0
1
0
1
0
0
1
1
1
0
1
0
1
0
0
0
0
1
1
0
1
0
1
1
0
0
0
1
1
1
0
1
1
0
1
1
1
1
0
0
1
0
0
0
0
1
1
0
0
1
0
1
1
1
1
0
0
0
0
0
1
1
0
0
1
1
0
0
0
0
1
1
1
0
1
1
1
0
1
1
0
0
0
0
1
1
1
0
0
1
1
1
0
1
1
1
1
0
0
0
0
0
1
1
0
0
1
0
1
0
1
0
1
1
1
1
1
0
1
0
1
1
1
0
1
1
1
0
1
1
1
0
0
1
1
0
0
1
0
0
1
0
1
1
1
0
1
0
0
1
0
1
1
1
1
0
0
0
1
0
0
1
1
0
1
0
0
0
0
0
1
0
0
1
0
1
0
1
1
1
0
1
1
0
0
0
0
0
1
0
0
0
1
0
0
0
1
0
0
1
0
1
0
1
1
0
1
1
0
1
0
1
1
0
1
0
0
0
0
1
1
0
0
0
1
0
1
0
1
1
0
1
0
0
0
1
1
0
1
0
1
0
0
1
0
0
0
0
0
0
0
0
1
0
0
1
1
1
0
0
1
1
0
1
1
0
1
0
1
0
1
0
1
1
1
1
1
1
0
0
1
0
1
1
1
0
0
1
1
1
1
0
1
1
1
0
0
0
0
1
0
0
1
1
0
0
1
1
1
0
0
0
1
0
1
0
1
0
0
0
1
1
1
1
0
1
1
1
0
1
0
1
1
1
0
1
0
1
1
0
1
1
1
0
1
1
0
0
0
0
1
0
0
1
1
1
0
1
0
1
0
1
0
1
0
0
0
0
1
0
0
1
1
0
0
1
0
0
1
0
0
0
0
0
0
0
1
0
0
1
0
1
1
0
0
0
1
0
0
0
0
0
1
0
1
0
1
1
0
1
0
1
1
0
0
0
1
0
0
0
0
0
1
0
1
1
0
1
1
0
1
0
1
1
0
0
1
0
1
0
0
1
1
1
0
0
0
0
0
1
0
0
0
0
1
0
0
1
1
1
1
0
1
0
1
0
0
0
1
1
1
1
0
0
1
0
0
1
0
1
1
0
0
1
1
1
0
0
1
1
0
1
1
0
1
0
1
1
1
0
1
0
0
1
1
1
1
1
0
1
0
0
1
1
0
1
1
0
1
0
0
0
0
0
1
0
1
0
0
0
1
1
1
1
0
0
1
0
1
0
1
1
0
1
1
1
0
1
1
0
0
0
1
0
0
0
0
1
0
0
1
0
0
0
0
1
0
0
0
1
1
0
0
0
1
1
1
1
0
0
1
1
1
0
0
1
0
1
1
0
1
1
1
0
1
0
0
0
1
0
1
1
1
1
1
0
0
1
1
1
0
0
0
0
0
0
0
1
0
1
1
0
1
0
0
1
0
0
0
1
0
0
0
0
0
1
1
0
0
1
0
0
1
0
0
0
1
0
0
1
0
0
1
1
1
1
1
0
1
0
0
1
0
1
1
0
1
0
1
1
0
0
1
0
0
0
0
0
1
1
1
1
0
1
0
1
0
1
0
0
0
0
0
1
1
1
1
0
0
1
1
0
1
0
0
1
1
1
0
1
1
0
1
0
0
0
0
1
1
1
1
0
1
1
0
0
0
1
0
0
1
1
1
0
0
1
1
1
1
0
1
0
1
0
1
1
1
0
1
1
0
1
0
1
1
0
0
0
1
0
1
1
1
0
0
0
0
0
0
0
1
1
0
0
0
1
0
1
0
0
1
0
1
1
1
1
1
0
0
0
1
0
0
0
0
1
1
0
1
0
0
1
1
0
0
0
0
0
0
1
0
0
1
1
0
0
1
1
0
1
0
1
1
1
1
0
0
0
1
1
1
0
1
0
1
0
1
0
0
1
1
0
0
1
1
1
0
1
0
0
0
1
1
0
0
0
1
1
1
1
1
0
1
1
1
0
0
0
0
0
1
0
0
0
1
0
1
0
0
1
1
0
1
1
1
1
1
1
0
1
0
1
1
0
0
0
1
1
1
1
1
1
1
1
0
0
0
0
0
1
1
1
1
0
1
0
1
1
1
0
1
0
0
1
0
1
1
0
0
1
1
1
1
1
0
0
1
1
1
0
0
0
1
0
0
0
0
1
0
0
0
1
0
1
0
1
1
1
1
0
0
0
0
0
0
0
1
1
1
0
1
1
1
1
0
1
0
0
0
0
1
1
0
1
0
0
1
1
0
1
0
1
1
0
0
0
1
0
0
1
0
0
1
1
1
0
1
1
1
1
0
1
0
1
1
0
1
0
0
0
0
1
1
0
1
1
0
0
0
1
1
0
1
1
1
1
1
0
0
0
1
0
1
1
0
1
0
1
1
1
0
1
1
0
1
0
1
0
0
1
1
0
1
1
1
0
1
0
0
0
0
0
0
0
0
1
0
0
0
1
0
1
0
0
0
0
0
0
1
0
0
0
0
1
1
0
0
1
1
1
1
0
0
1
0
0
1
1
1
0
1
1
0
1
1
1
1
0
1
0
1
0
1
1
1
1
1
0
0
0
1
1
0
1
1
0
0
0
0
0
0
0
1
1
0
1
1
0
0
1
0
1
0
0
1
0
1
1
1
1
0
0
0
1
0
0
0
1
1
0
1
1
0
1
0
0
0
1
0
0
0
1
0
0
0
1
0
0
1
1
1
1
1
1
1
0
1
1
1
1
0
0
0
0
0
1
1
1
1
1
0
0
0
1
0
1
1
0
1
1
1
0
0
0
1
0
1
1
1
0
1
0
1
0
0
1
1
0
0
0
0
1
0
1
0
0
0
1
0
1
0
0
1
1
1
1
1
1
0
0
1
0
0
0
0
0
0
1
0
1
0
1
0
1
0
0
0
0
1
1
0
0
0
0
0
1
1
1
1
1
0
1
0
0
1
0
0
1
0
0
1
1
1
0
0
1
1
0
0
0
1
0
0
1
0
1
1
0
1
0
0
1
0
1
0
0
1
0
1
0
1
0
0
1
1
0
0
0
1
1
0
1
0
0
1
1
1
0
1
1
0
0
0
1
0
1
1
1
0
1
0
1
0
1
0
1
1
1
0
1
0
1
0
0
0
1
0
1
0
0
0
0
0
0
0
1
0
1
0
0
1
0
0
1
1
0
0
1
1
1
1
0
0
0
0
1
0
0
1
0
1
1
0
1
0
0
1
1
0
1
1
0
0
0
1
0
1
0
1
0
1
1
0
0
1
1
1
0
1
1
0
1
1
0
1
0
0
1
1
0
0
1
0
1
0
0
1
0
1
0
1
1
0
1
1
0
1
1
0
0
1
0
1
1
0
1
0
0
0
1
0
0
0
1
1
1
0
1
1
0
0
0
0
1
1
0
0
1
1
0
1
0
0
0
1
0
0
1
0
0
0
0
1
1
1
1
1
0
1
0
1
1
0
0
1
1
0
1
1
0
1
0
1
0
0
1
0
0
1
0
0
1
0
1
1
1
1
1
1
0
0
1
0
1
0
1
1
1
1
1
0
1
1
0
0
1
1
0
1
0
0
0
1
0
0
0
1
0
1
0
1
0
1
1
0
0
1
0
1
1
0
0
1
0
1
0
0
1
1
1
0
0
1
0
1
1
0
1
1
1
1
0
0
0
1
1
1
0
0
0
1
1
0
1
1
0
1
1
0
0
1
1
0
0
0
1
1
0
1
0
0
0
0
0
1
1
0
1
1
0
0
0
0
0
0
0
0
0
0
1
0
1
1
1
0
1
0
1
0
0
1
0
1
1
1
0
1
1
1
1
0
1
1
1
1
1
0
0
0
0
1
1
0
1
1
1
0
0
1
1
0
1
1
0
0
1
0
0
1
0
1
0
0
0
0
1
0
1
1
1
0
1
1
1
1
0
0
1
1
0
0
1
0
1
0
1
0
1
1
1
0
0
0
1
1
0
1
0
1
0
0
1
1
0
0
0
1
0
0
0
1
1
0
0
0
0
0
0
0
0
0
1
1
0
0
1
1
0
0
1
1
0
1
1
0
1
1
0
0
0
1
1
0
0
0
0
1
1
0
0
0
1
0
0
0
1
0
0
1
1
0
0
0
0
1
0
1
0
0
0
1
0
1
1
0
1
1
1
0
1
0
0
1
1
0
1
1
1
0
0
1
0
1
1
1
0
0
1
1
0
1
0
1
0
1
1
1
0
1
1
1
1
0
1
0
0
1
0
0
0
0
1
0
1
1
0
0
1
1
0
0
0
1
0
1
1
0
1
0
0
1
0
0
1
0
1
1
1
0
1
1
0
0
0
1
0
0
1
0
1
0
1
1
1
1
0
0
1
1
0
0
1
1
0
1
1
1
1
0
0
0
0
0
0
0
0
0
0
0
0
0
1
1
1
0
0
1
1
0
0
0
0
1
1
1
0
1
0
0
1
1
0
0
0
1
1
1
0
1
1
0
0
0
0
1
1
1
1
1
1
1
0
0
0
0
1
1
1
0
0
1
1
0
0
0
1
1
1
1
0
0
0
1
1
1
1
1
1
1
1
1
1
0
1
1
1
1
0
1
0
1
1
1
1
1
0
0
0
1
1
0
1
1
1
0
0
1
1
0
0
1
1
1
0
0
1
1
0
0
1
0
1
1
1
0
1
1
1
0
1
0
0
1
1
1
0
0
1
0
1
0
1
1
0
0
1
0
1
1
1
1
1
0
0
1
1
0
0
0
1
1
1
1
1
1
1
1
0
1
0
1
0
1
1
0
0
1
1
0
0
1
1
0
0
1
1
0
1
1
0
0
1
1
1
0
0
1
1
1
1
1
1
0
1
0
0
0
0
1
0
0
1
0
0
0
0
1
0
1
0
1
0
0
0
0
0
1
1
1
1
0
0
1
0
1
1
0
1
0
0
1
1
1
1
0
0
0
1
0
0
1
1
1
0
0
0
0
1
1
1
1
0
1
1
1
1
0
0
0
1
1
1
1
1
0
0
0
0
0
1
0
0
1
0
1
0
0
0
0
1
0
0
1
1
1
1
0
1
1
1
0
0
1
0
0
0
1
0
0
0
0
1
0
0
1
1
1
0
0
1
1
0
0
1
1
1
0
0
0
1
0
0
0
0
1
0
1
1
1
1
0
1
0
0
1
0
0
1
0
0
0
1
0
0
0
1
0
0
0
0
1
0
0
0
0
0
0
1
1
0
0
1
0
0
0
0
1
0
1
1
0
0
1
0
0
1
0
0
1
1
0
0
1
1
0
1
0
1
1
1
1
1
0
1
0
0
0
0
0
0
0
0
0
0
0
1
1
0
0
0
1
1
1
1
0
1
1
1
1
1
1
0
0
1
0
1
1
0
1
0
1
1
0
0
1
1
1
1
1
1
1
0
1
1
1
1
0
0
0
1
0
0
0
0
0
0
1
0
1
1
1
0
0
1
1
0
0
0
0
0
0
0
1
1
0
1
1
1
0
1
0
1
1
0
0
0
1
1
1
0
1
1
1
0
0
1
0
1
0
0
0
1
0
0
0
1
0
1
0
1
1
1
0
0
1
0
0
1
0
1
0
0
0
1
1
0
0
1
1
1
1
1
1
0
0
1
0
0
0
0
0
1
0
0
0
0
0
1
1
1
1
0
1
1
1
0
1
0
1
1
1
1
0
1
1
1
0
0
0
1
0
1
0
0
0
1
1
0
0
0
1
1
1
1
1
1
1
1
1
0
1
1
0
1
0
1
0
1
0
1
1
0
1
0
1
0
0
1
0
1
0
1
0
0
0
0
0
0
1
0
1
1
1
1
1
1
0
1
0
0
0
0
1
1
1
1
0
1
1
1
1
1
0
1
1
1
0
0
1
1
0
0
1
0
0
0
0
0
0
0
1
1
0
0
1
0
1
1
1
1
1
0
0
0
1
1
1
0
0
1
1
1
0
0
1
0
1
0
1
0
0
0
0
0
1
1
1
0
0
1
1
0
0
0
1
0
1
1
1
0
1
1
0
1
0
0
1
1
0
0
0
1
1
0
0
1
0
0
0
0
0
1
1
1
1
0
0
0
1
1
0
1
0
0
0
0
0
1
1
0
0
1
0
1
1
1
1
0
0
1
1
1
0
0
1
1
0
0
0
0
0
0
0
1
0
0
0
1
1
1
1
0
0
0
0
1
1
0
1
0
1
0
1
1
0
0
0
0
0
1
0
1
0
0
1
1
0
0
1
1
0
1
0
0
0
1
0
0
1
0
0
0
0
1
0
1
0
0
0
1
0
1
1
1
0
1
1
1
1
0
1
1
0
0
1
0
1
0
1
0
0
0
0
1
1
0
0
1
1
1
0
1
0
0
1
1
1
0
0
1
1
0
1
0
0
1
0
1
1
1
0
0
0
0
0
1
1
1
1
1
0
0
0
0
1
0
1
1
0
0
0
0
0
0
1
1
0
1
0
0
0
1
1
0
1
1
1
1
1
0
0
1
0
1
0
0
0
0
0
1
0
1
1
1
1
1
0
0
0
1
1
0
0
1
0
0
0
1
1
1
1
1
0
1
0
1
1
1
1
1
0
0
1
1
0
1
1
1
0
0
1
1
1
1
1
0
1
1
0
0
0
1
1
1
0
1
0
1
1
1
1
1
1
1
1
0
1
1
0
1
0
0
1
1
0
1
0
0
1
1
0
0
1
1
0
1
0
1
0
1
0
0
1
1
0
0
0
1
1
0
0
0
1
1
0
1
0
0
1
0
1
1
1
0
0
1
1
0
0
1
1
1
0
1
1
0
1
1
0
1
1
1
0
0
1
0
0
1
1
1
1
0
0
0
0
1
1
0
0
1
0
0
1
1
1
1
0
1
1
0
1
0
1
1
0
0
1
0
1
1
1
0
1
1
1
1
0
0
0
0
0
1
1
0
0
1
1
1
1
1
0
1
0
1
1
0
1
0
0
1
0
1
1
1
0
0
1
0
1
1
1
1
1
1
1
1
0
0
1
0
1
0
0
0
1
1
0
1
1
1
1
1
1
0
1
1
1
0
0
0
0
0
0
1
1
0
0
1
0
1
0
1
0
1
1
0
1
0
0
1
1
0
0
0
1
0
1
0
1
0
1
1
0
0
1
0
1
1
1
1
1
1
0
0
1
0
0
1
1
0
1
1
1
1
0
1
0
0
0
1
1
1
1
0
0
0
0
1
1
1
1
1
0
0
0
1
1
0
1
1
1
0
0
1
1
1
0
1
0
1
1
0
1
1
0
1
1
0
0
0
0
0
1
1
1
0
0
0
1
0
1
1
1
0
0
0
0
1
0
1
0
0
1
0
0
0
0
1
0
0
1
1
1
0
0
0
0
0
0
0
0
1
1
1
1
0
0
0
0
0
0
1
1
0
0
1
0
1
1
1
0
1
0
0
1
0
0
0
1
0
1
1
0
0
1
1
1
0
0
1
1
0
0
1
1
1
0
0
0
1
1
1
1
0
1
0
1
0
1
1
0
0
1
0
1
0
1
1
1
1
1
0
1
0
0
0
1
0
1
1
1
0
0
1
0
0
1
0
1
1
1
0
1
0
0
0
0
0
0
0
0
1
0
0
1
1
1
0
1
1
0
0
0
0
0
0
1
0
0
0
1
1
0
0
0
0
0
0
0
0
0
1
0
0
1
1
0
1
1
0
0
1
1
1
1
1
0
0
0
0
1
0
1
1
1
1
1
1
1
0
1
1
0
0
0
1
1
0
0
1
0
1
1
0
0
1
1
1
1
1
1
1
0
0
1
1
0
0
1
1
0
0
1
1
1
0
1
1
0
1
0
1
0
1
1
1
0
0
0
1
0
1
1
1
1
1
1
0
1
0
1
0
1
0
1
1
1
0
0
0
0
0
1
1
1
0
0
0
0
0
1
0
1
1
0
1
0
1
0
1
0
0
1
0
1
1
1
0
0
1
0
0
0
0
1
1
1
0
1
0
0
0
1
0
1
0
1
1
0
0
0
1
1
1
0
0
0
1
0
0
1
1
1
0
0
1
0
0
0
1
0
0
1
1
1
0
0
0
0
0
0
1
0
0
0
1
1
0
1
1
0
1
1
1
0
1
0
0
1
0
1
1
0
1
0
1
0
0
0
1
1
1
0
1
1
1
0
1
1
0
0
0
1
0
1
0
1
1
1
0
0
0
1
0
1
0
0
1
0
1
1
0
1
0
0
0
1
0
0
0
1
0
0
1
0
1
1
0
1
0
1
1
0
1
0
1
1
1
1
1
0
0
0
1
1
0
0
0
0
1
1
1
0
1
0
0
1
1
1
1
1
1
1
1
1
0
1
0
0
1
0
1
1
0
0
0
0
0
0
0
1
0
1
0
0
1
0
1
1
1
0
0
1
0
0
0
0
0
0
0
0
1
0
1
1
0
1
0
0
1
0
1
1
1
0
1
1
1
1
0
1
0
0
1
1
0
0
1
0
0
0
1
1
1
1
1
0
1
1
0
1
0
0
0
1
0
0
1
0
1
0
0
1
0
0
1
1
1
1
1
1
0
1
0
1
0
1
0
0
0
1
1
1
0
0
1
1
0
1
0
1
0
0
0
0
1
1
1
1
1
0
1
0
0
0
0
1
0
1
0
0
0
0
0
0
1
1
1
1
1
1
0
1
1
0
1
1
1
1
0
0
0
0
1
0
1
1
1
0
0
0
0
0
1
0
0
1
1
0
0
1
0
1
1
1
1
1
0
0
0
0
0
0
1
0
0
0
0
0
0
1
1
1
1
1
0
1
0
0
0
0
1
1
0
1
0
0
0
1
1
0
1
0
0
0
0
1
0
0
0
1
0
0
0
0
0
1
1
1
1
1
0
0
1
0
0
1
1
1
1
1
0
0
1
1
1
0
1
0
0
1
1
0
0
1
0
1
1
1
1
1
0
1
0
0
1
0
0
0
0
0
1
0
1
1
0
0
0
1
0
0
1
1
1
0
1
1
0
0
0
0
0
1
0
0
0
1
1
0
1
1
0
0
1
0
1
1
0
1
1
0
1
1
1
1
1
1
1
0
1
0
1
1
1
1
0
0
1
1
0
0
1
1
1
1
1
0
1
0
1
0
0
0
1
0
1
0
0
1
0
0
1
0
0
0
0
1
1
1
0
1
0
0
1
1
1
0
0
0
0
1
0
0
1
1
1
1
0
1
0
1
1
0
1
1
1
0
1
0
0
0
0
1
1
1
0
0
0
0
1
1
0
1
1
0
1
0
1
0
1
0
1
0
1
1
1
0
1
0
0
0
1
0
1
0
1
0
0
0
0
0
0
0
0
1
0
1
0
1
0
1
1
0
0
0
0
0
0
0
0
1
1
1
1
1
0
1
0
1
1
1
0
0
1
0
1
1
0
1
0
0
0
0
1
0
0
1
0
0
1
0
1
1
1
1
0
0
1
0
1
0
0
0
0
0
1
1
1
1
0
1
1
0
1
0
1
0
0
0
1
0
0
1
0
1
1
0
1
1
0
1
0
1
0
0
0
0
0
0
1
1
0
0
1
0
0
0
1
1
1
0
0
1
0
1
0
0
0
0
1
0
0
1
0
0
0
0
0
0
1
1
0
1
1
1
0
0
0
0
0
1
1
1
0
0
0
0
1
1
0
0
0
1
0
1
0
1
1
0
0
1
1
1
1
1
1
0
0
1
1
1
1
1
1
0
1
0
0
0
1
0
1
0
1
0
1
1
1
1
0
0
1
0
1
1
0
1
0
0
1
0
1
1
1
1
0
1
0
0
0
0
1
1
0
0
0
1
1
0
0
1
0
1
0
1
0
1
1
1
1
1
1
0
1
1
1
1
1
1
0
0
0
1
0
0
1
1
0
0
0
0
0
0
1
0
1
0
0
1
0
1
0
0
1
1
0
0
0
1
0
0
0
1
0
1
1
0
0
0
1
1
1
0
0
0
0
1
1
1
1
0
0
0
1
0
1
0
1
0
1
1
0
1
0
1
0
1
0
1
1
1
0
0
0
1
0
1
1
1
1
1
1
1
0
0
1
1
1
1
0
0
1
0
0
0
0
1
1
0
1
1
1
1
1
0
1
1
0
1
1
1
0
0
0
0
0
1
0
1
1
0
1
0
1
1
1
0
0
0
1
0
0
0
1
1
1
1
1
1
0
0
0
0
0
0
1
0
1
1
0
1
1
0
1
0
1
0
1
1
0
1
0
0
1
1
1
1
1
0
0
1
1
0
1
1
0
1
0
1
0
1
0
1
1
1
0
0
1
1
1
1
1
1
0
1
1
1
1
0
1
1
1
0
0
1
1
1
0
