P1
# random bitmap generated by: random-bitmap 10 10 50
10 10
0
1
1
1
0
0
0
0
1
1
1
0
1
0
1
1
0
1
1
1
0
0
1
0
1
0
1
1
0
1
1
0
0
0
1
0
1
1
1
0
1
0
0
0
0
1
0
1
1
1
0
0
1
1
0
1
1
0
0
1
0
0
1
1
0
1
0
0
1
1
1
0
1
1
0
0
0
0
0
0
0
0
0
0
1
0
0
0
1
0
0
0
1
1
0
1
1
1
0
1
